<?xml version="1.0" encoding="utf-8"?>
<!-- Generator: Adobe Illustrator 17.0.0, SVG Export Plug-In . SVG Version: 6.00 Build 0)  -->
<!DOCTYPE svg PUBLIC "-//W3C//DTD SVG 1.1//EN" "http://www.w3.org/Graphics/SVG/1.1/DTD/svg11.dtd">
<svg version="1.1" id="图层_1" xmlns="http://www.w3.org/2000/svg" xmlns:xlink="http://www.w3.org/1999/xlink" x="0px" y="0px"
	 width="512px" height="512px" viewBox="0 0 512 512" enable-background="new 0 0 512 512" xml:space="preserve">
<g>
	<rect fill="#FADD60" width="512" height="512"/>
</g>
<path opacity="0.1" fill="#FFFFFF" d="M0,22v390.828C229.433,409.061,428.058,234.94,491.705,0H0"/>
<path opacity="0.1" fill="#FFFFFF" d="M190.256,204.525c22.71,1.48,36.251,1.973,62.812,2.54c8.302,0.177,61.979-2.233,64.241-2.563
	c1.724-0.252-47.787-0.729-64.517-0.732C237.879,203.767,190.256,204.525,190.256,204.525z"/>
<g>
	<g>
		<g opacity="0.16">
			<path d="M433.651,340c0,126-355.303,126-355.303,0c0-97,79.537-177.651,177.651-177.651S433.651,243,433.651,340z"/>
		</g>
		<g>
			<path fill="#FFFFFF" d="M433.651,339c0,126-355.303,126-355.303,0c0-97,79.537-177.651,177.651-177.651S433.651,242,433.651,339z
				"/>
		</g>
	</g>
	<g>
		<polygon fill="#C30D23" points="191,442.476 191,391.828 255.461,417.152 		"/>
		<polygon opacity="0.5" fill="#FFFFFF" points="316,442.476 316,391.828 251.539,417.152 		"/>
		<polygon fill="#C30D23" points="316,442.476 316,391.828 251.539,417.152 		"/>
		<polygon opacity="0.1" fill="#FFFFFF" points="253.5,415.344 191,391.828 191,413 252.547,413 261.755,413 316,413 316,391.828 		
			"/>
	</g>
	<path d="M250.739,206.674c0,0,90.482,1.833,119.665-5.372c14.061-3.472,29.889-12.8,28.547-29.705
		c-1.046-13.17-12.869-19.416-22.595-20.541c-6.397-0.74-20.699,5.478-20.699,5.478s-0.077-29.601-10.958-51.404
		c-15.084-30.224-47.075-35.606-89.219-35.606c-40.637,0-77.46,9.657-93.225,38.554c-8.215,15.059-9.533,48.245-9.533,48.245
		s-21.111-6.367-28.863-3.687c-9.095,3.144-17.424,15.982-13.735,28.336c5.091,17.05,29.593,20.178,37.227,21.34
		C176.807,206.796,197.016,205.621,250.739,206.674z"/>
	<polygon fill="#231815" points="304.064,315 205.633,315 190.49,344 319.208,344 	"/>
	<path opacity="0.2" fill="#FAFAFA" d="M356.241,160.556c5.444-3.261,12.991-5.566,20.12-4.413
		c14.676,2.374,15.971,17.842,9.425,27.698C390.39,149.524,356.241,160.556,356.241,160.556z"/>
	<path opacity="0.2" fill="#FAFAFA" d="M150.075,160.556c-5.427-3.261-12.952-5.566-20.06-4.413
		c-14.632,2.374-15.923,17.842-9.396,27.698C116.028,149.524,150.075,160.556,150.075,160.556z"/>
	<path opacity="0.3" fill="#FFFFFF" d="M212.396,77.437c20.505-2.625,65.343-5.349,97.551,6.124
		c25.481,9.077,37.621,34.996,37.621,45.057C330.015,69.563,212.396,77.437,212.396,77.437z"/>
	<ellipse fill="#231815" cx="169.668" cy="257.151" rx="16.115" ry="22.678"/>
	<circle opacity="0.9" fill="#FFFFFF" cx="164.201" cy="250.556" r="7.05"/>
	<circle opacity="0.9" fill="#FFFFFF" cx="179.836" cy="268.518" r="3.07"/>
	<ellipse fill="#231815" cx="333.123" cy="257.151" rx="16.115" ry="22.678"/>
	<circle opacity="0.9" fill="#FFFFFF" cx="327.655" cy="250.556" r="7.05"/>
	<circle opacity="0.9" fill="#FFFFFF" cx="343.291" cy="268.518" r="3.07"/>
</g>
<path opacity="0.1" fill="#FFFFFF" d="M0,4.162"/>
<path opacity="0.07" fill="#FFFFFF" d="M0,22v390.828C229.433,409.061,428.058,234.94,491.705,0H0"/>
</svg>
